<svg width="24" height="24" viewBox="0 0 24 24" fill="none" xmlns="http://www.w3.org/2000/svg">
<path d="M20.5382 3.46308C18.7266 1.65147 16.7914 2.82401 15.5803 4.0351L4.1397 15.4761C2.92862 16.6871 1.66101 18.5271 3.56769 20.4335C5.47438 22.3406 7.31437 21.0727 8.52519 19.8616L19.966 8.42088C21.1771 7.20967 22.3497 5.27444 20.5382 3.46308Z" fill="currentColor"/>
<path d="M9.60817 2.99443L12.0307 5.41686L14.4966 2.951C14.6639 2.7832 14.8339 2.62748 15.0049 2.48062C14.7467 1.17781 14.0033 0 12.0296 0C10.052 0 9.3096 1.18243 9.05273 2.48807C9.23739 2.64778 9.4216 2.80787 9.60817 2.99443Z" fill="currentColor"/>
<path d="M14.4951 20.9888L12.0308 18.5244L9.60954 20.9454C9.42571 21.1294 9.24272 21.2975 9.06055 21.4553C9.3382 22.7835 10.124 24 12.0298 24C13.9406 24 14.7253 22.7769 15.0012 21.4445C14.8317 21.2987 14.6621 21.1557 14.4951 20.9888Z" fill="currentColor"/>
<path d="M8.58044 8.86694H3.91011C2.19769 8.86694 0 9.40643 0 11.9682C0 13.8796 1.22341 14.6645 2.55604 14.9402C2.71381 14.758 8.58044 8.86694 8.58044 8.86694Z" fill="currentColor"/>
<path d="M21.5126 8.99146C21.3648 9.16336 15.4858 15.0694 15.4858 15.0694H20.0899C21.8024 15.0694 24 14.6647 24 11.9683C24 9.99109 22.8179 9.24819 21.5126 8.99146Z" fill="currentColor"/>
<path d="M10.1106 7.33388L10.9449 6.49951L8.52391 4.07817C7.31271 2.86719 5.47296 1.59945 3.56628 3.50615C2.16814 4.90431 2.47868 6.26503 3.22028 7.36972C3.44615 7.35308 10.1106 7.33388 10.1106 7.33388Z" fill="currentColor"/>
<path d="M13.9493 16.6024L13.1128 17.439L15.5788 19.9048C16.7899 21.116 18.7251 22.2883 20.5365 20.4769C21.8882 19.1252 21.578 17.7054 20.8307 16.5681C20.5902 16.5855 13.9493 16.6024 13.9493 16.6024Z" fill="currentColor"/>
</svg>
